<svg width="1240" height="2208" viewBox="0 0 1240 2208" fill="none" xmlns="http://www.w3.org/2000/svg" aria-label="Customers management">
  <rect width="1240" height="2208" fill="#F6FFF8"/>
  <circle cx="1050" cy="240" r="240" fill="#DCFCE7" fill-opacity="0.55"/>
  <circle cx="190" cy="1900" r="280" fill="#DCFCE7" fill-opacity="0.65"/>
  <rect x="52" y="52" width="1136" height="2104" rx="68" fill="#FFFFFF" stroke="#D1FAE5" stroke-width="4"/>
  
  <text x="112" y="134" fill="#111827" font-size="34" font-weight="700" font-family="Inter, Arial, sans-serif">9:41</text>
  <rect x="996" y="104" width="42" height="20" rx="10" fill="#111827" opacity="0.92"/>
  <rect x="1048" y="100" width="54" height="28" rx="8" fill="none" stroke="#111827" stroke-width="6"/>
  <rect x="1106" y="107" width="8" height="14" rx="3" fill="#111827"/>
  <path d="M936 124C955 107 979 107 998 124" stroke="#111827" stroke-width="6" stroke-linecap="round"/>
  <path d="M956 124C966 115 979 115 989 124" stroke="#111827" stroke-width="6" stroke-linecap="round"/>
  
  <g>
    <rect x="96" y="170" width="1048" height="118" rx="32" fill="#15803D"/>
    <circle cx="166" cy="229" r="30" fill="#DCFCE7"/>
    <path d="M166 198C166 198 145 223 145 242.5C145 256.5 154 268 166 268C178 268 187 256.5 187 242.5C187 223 166 198 166 198Z" fill="#15803D"/>
    <text x="214" y="222" fill="#FFFFFF" font-size="42" font-weight="700" font-family="Inter, Arial, sans-serif">Customers</text>
    <text x="214" y="258" fill="#DCFCE7" font-size="22" font-weight="500" font-family="Inter, Arial, sans-serif">Manage households, cafes and wholesale buyers</text>
  </g>
      <g>
    <rect x="96" y="328" width="1048" height="76" rx="24" fill="#F9FAFB" stroke="#D1FAE5" stroke-width="3"/>
    <circle cx="146" cy="366" r="12" fill="none" stroke="#6B7280" stroke-width="4"/>
    <path d="M155 375L166 386" stroke="#6B7280" stroke-width="4" stroke-linecap="round"/>
    <text x="182" y="376" fill="#9CA3AF" font-size="22" font-weight="600" font-family="Inter, Arial, sans-serif">Search customers, invoices, routes...</text>
  </g>
      <g><rect x="96" y="430" width="166" height="46" rx="23" fill="#DCFCE7"/><text x="179" y="460" text-anchor="middle" fill="#166534" font-size="20" font-weight="700" font-family="Inter, Arial, sans-serif">All routes</text></g>
      <g><rect x="270" y="430" width="120" height="46" rx="23" fill="#DBEAFE"/><text x="330" y="460" text-anchor="middle" fill="#1D4ED8" font-size="20" font-weight="700" font-family="Inter, Arial, sans-serif">Active</text></g>
      <g><rect x="416" y="430" width="180" height="46" rx="23" fill="#ECFCCB"/><text x="506" y="460" text-anchor="middle" fill="#166534" font-size="20" font-weight="700" font-family="Inter, Arial, sans-serif">Residential</text></g>
      <g>
    <rect x="96" y="500" width="328" height="152" rx="28" fill="#FFFFFF" stroke="#D1FAE5" stroke-width="3"/>
    <rect x="120" y="524" width="54" height="54" rx="18" fill="#DCFCE7"/>
    <text x="196" y="550" fill="#6B7280" font-size="22" font-weight="600" font-family="Inter, Arial, sans-serif">Customers</text>
    <text x="120" y="620" fill="#111827" font-size="44" font-weight="800" font-family="Inter, Arial, sans-serif">148</text>
  </g>
      <g>
    <rect x="456" y="500" width="328" height="152" rx="28" fill="#FFFFFF" stroke="#D1FAE5" stroke-width="3"/>
    <rect x="480" y="524" width="54" height="54" rx="18" fill="#DBEAFE"/>
    <text x="556" y="550" fill="#6B7280" font-size="22" font-weight="600" font-family="Inter, Arial, sans-serif">On subscription</text>
    <text x="480" y="620" fill="#111827" font-size="44" font-weight="800" font-family="Inter, Arial, sans-serif">131</text>
  </g>
      <g>
    <rect x="816" y="500" width="328" height="152" rx="28" fill="#FFFFFF" stroke="#D1FAE5" stroke-width="3"/>
    <rect x="840" y="524" width="54" height="54" rx="18" fill="#FEF3C7"/>
    <text x="916" y="550" fill="#6B7280" font-size="22" font-weight="600" font-family="Inter, Arial, sans-serif">Outstanding</text>
    <text x="840" y="620" fill="#111827" font-size="44" font-weight="800" font-family="Inter, Arial, sans-serif">₹4,920</text>
  </g>
      <text x="96" y="712" fill="#111827" font-size="30" font-weight="800" font-family="Inter, Arial, sans-serif">Customer directory</text><text x="796" y="712" fill="#15803D" font-size="22" font-weight="700" text-anchor="end" font-family="Inter, Arial, sans-serif">Export</text>
      <g>
    <rect x="96" y="744" width="1048" height="132" rx="24" fill="#FFFFFF" stroke="#D1FAE5" stroke-width="3"/>
    <circle cx="144" cy="792" r="18" fill="#DCFCE7"/>
    <text x="176" y="786" fill="#111827" font-size="24" font-weight="800" font-family="Inter, Arial, sans-serif">Anil Gupta</text>
    <rect x="120" y="826" width="136" height="38" rx="19" fill="#DCFCE7"/><text x="188" y="851" text-anchor="middle" fill="#166534" font-size="18" font-weight="700" font-family="Inter, Arial, sans-serif">Sector 15 • Residential</text>
    <text x="1120" y="786" text-anchor="end" fill="#111827" font-size="22" font-weight="800" font-family="Inter, Arial, sans-serif">2 L/day</text>
    <text x="1120" y="818" text-anchor="end" fill="#6B7280" font-size="18" font-weight="600" font-family="Inter, Arial, sans-serif">Paid</text>
  </g>
      <g>
    <rect x="96" y="892" width="1048" height="132" rx="24" fill="#FFFFFF" stroke="#D1FAE5" stroke-width="3"/>
    <circle cx="144" cy="940" r="18" fill="#DCFCE7"/>
    <text x="176" y="934" fill="#111827" font-size="24" font-weight="800" font-family="Inter, Arial, sans-serif">Royal Cafe</text>
    <rect x="120" y="974" width="136" height="38" rx="19" fill="#DBEAFE"/><text x="188" y="999" text-anchor="middle" fill="#1D4ED8" font-size="18" font-weight="700" font-family="Inter, Arial, sans-serif">Sector 15 • Commercial</text>
    <text x="1120" y="934" text-anchor="end" fill="#111827" font-size="22" font-weight="800" font-family="Inter, Arial, sans-serif">10 L/day</text>
    <text x="1120" y="966" text-anchor="end" fill="#6B7280" font-size="18" font-weight="600" font-family="Inter, Arial, sans-serif">Due ₹1,250</text>
  </g>
      <g>
    <rect x="96" y="1040" width="1048" height="132" rx="24" fill="#FFFFFF" stroke="#D1FAE5" stroke-width="3"/>
    <circle cx="144" cy="1088" r="18" fill="#DCFCE7"/>
    <text x="176" y="1082" fill="#111827" font-size="24" font-weight="800" font-family="Inter, Arial, sans-serif">Sweet Home Bakery</text>
    <rect x="120" y="1122" width="136" height="38" rx="19" fill="#DCFCE7"/><text x="188" y="1147" text-anchor="middle" fill="#166534" font-size="18" font-weight="700" font-family="Inter, Arial, sans-serif">Sector 16 • Commercial</text>
    <text x="1120" y="1082" text-anchor="end" fill="#111827" font-size="22" font-weight="800" font-family="Inter, Arial, sans-serif">8 L/day</text>
    <text x="1120" y="1114" text-anchor="end" fill="#6B7280" font-size="18" font-weight="600" font-family="Inter, Arial, sans-serif">Paid</text>
  </g>
      <g>
    <rect x="96" y="1188" width="1048" height="132" rx="24" fill="#FFFFFF" stroke="#D1FAE5" stroke-width="3"/>
    <circle cx="144" cy="1236" r="18" fill="#DCFCE7"/>
    <text x="176" y="1230" fill="#111827" font-size="24" font-weight="800" font-family="Inter, Arial, sans-serif">Aditi Rao</text>
    <rect x="120" y="1270" width="136" height="38" rx="19" fill="#ECFCCB"/><text x="188" y="1295" text-anchor="middle" fill="#166534" font-size="18" font-weight="700" font-family="Inter, Arial, sans-serif">Sector 17 • Residential</text>
    <text x="1120" y="1230" text-anchor="end" fill="#111827" font-size="22" font-weight="800" font-family="Inter, Arial, sans-serif">Buffalo milk</text>
    <text x="1120" y="1262" text-anchor="end" fill="#6B7280" font-size="18" font-weight="600" font-family="Inter, Arial, sans-serif">Trial</text>
  </g>
      <g>
    <rect x="96" y="1336" width="1048" height="132" rx="24" fill="#FFFFFF" stroke="#D1FAE5" stroke-width="3"/>
    <circle cx="144" cy="1384" r="18" fill="#DCFCE7"/>
    <text x="176" y="1378" fill="#111827" font-size="24" font-weight="800" font-family="Inter, Arial, sans-serif">Dairy Point</text>
    <rect x="120" y="1418" width="136" height="38" rx="19" fill="#FEF3C7"/><text x="188" y="1443" text-anchor="middle" fill="#B45309" font-size="18" font-weight="700" font-family="Inter, Arial, sans-serif">Sector 21 • Wholesale</text>
    <text x="1120" y="1378" text-anchor="end" fill="#111827" font-size="22" font-weight="800" font-family="Inter, Arial, sans-serif">25 L/day</text>
    <text x="1120" y="1410" text-anchor="end" fill="#6B7280" font-size="18" font-weight="600" font-family="Inter, Arial, sans-serif">Due ₹2,840</text>
  </g>
      <g>
        <rect x="96" y="1518" width="1048" height="372" rx="28" fill="#FFFFFF" stroke="#D1FAE5" stroke-width="3"/>
        <text x="120" y="1560" fill="#111827" font-size="28" font-weight="800" font-family="Inter, Arial, sans-serif">Route distribution</text>
        <g>
    <rect x="120" y="1580" width="1000" height="286" rx="28" fill="#FFFFFF" stroke="#D1FAE5" stroke-width="3"/>
    <text x="144" y="1622" fill="#111827" font-size="28" font-weight="800" font-family="Inter, Arial, sans-serif"></text>
    <g>
        <rect x="152" y="1662.4" width="40" height="145.6" rx="12" fill="#86EFAC"/>
        <text x="172" y="1840" text-anchor="middle" fill="#6B7280" font-size="16" font-weight="700" font-family="Inter, Arial, sans-serif">15</text>
      </g><g>
        <rect x="220" y="1683.2" width="40" height="124.80000000000001" rx="12" fill="#22C55E"/>
        <text x="240" y="1840" text-anchor="middle" fill="#6B7280" font-size="16" font-weight="700" font-family="Inter, Arial, sans-serif">16</text>
      </g><g>
        <rect x="288" y="1704" width="40" height="104" rx="12" fill="#16A34A"/>
        <text x="308" y="1840" text-anchor="middle" fill="#6B7280" font-size="16" font-weight="700" font-family="Inter, Arial, sans-serif">17</text>
      </g><g>
        <rect x="356" y="1652" width="40" height="156" rx="12" fill="#15803D"/>
        <text x="376" y="1840" text-anchor="middle" fill="#6B7280" font-size="16" font-weight="700" font-family="Inter, Arial, sans-serif">21</text>
      </g><g>
        <rect x="424" y="1714.4" width="40" height="93.6" rx="12" fill="#1D4ED8"/>
        <text x="444" y="1840" text-anchor="middle" fill="#6B7280" font-size="16" font-weight="700" font-family="Inter, Arial, sans-serif">22</text>
      </g>
  </g>
      </g>
      
  <rect x="96" y="1960" width="1048" height="132" rx="34" fill="#FFFFFF" stroke="#D1FAE5" stroke-width="3"/>
  
      <circle cx="208" cy="2012" r="20" fill="#E5E7EB"/>
      <text x="208" y="2066" text-anchor="middle" fill="#6B7280" font-size="20" font-weight="600" font-family="Inter, Arial, sans-serif">Home</text>
      <circle cx="416" cy="2012" r="20" fill="#15803D"/>
      <text x="416" y="2066" text-anchor="middle" fill="#15803D" font-size="20" font-weight="700" font-family="Inter, Arial, sans-serif">Customers</text>
      <circle cx="624" cy="2012" r="20" fill="#E5E7EB"/>
      <text x="624" y="2066" text-anchor="middle" fill="#6B7280" font-size="20" font-weight="600" font-family="Inter, Arial, sans-serif">Billing</text>
      <circle cx="832" cy="2012" r="20" fill="#E5E7EB"/>
      <text x="832" y="2066" text-anchor="middle" fill="#6B7280" font-size="20" font-weight="600" font-family="Inter, Arial, sans-serif">Reports</text>
      <circle cx="1040" cy="2012" r="20" fill="#E5E7EB"/>
      <text x="1040" y="2066" text-anchor="middle" fill="#6B7280" font-size="20" font-weight="600" font-family="Inter, Arial, sans-serif">More</text>
</svg>