<svg width="1240" height="2208" viewBox="0 0 1240 2208" fill="none" xmlns="http://www.w3.org/2000/svg" aria-label="Billing and payments">
  <rect width="1240" height="2208" fill="#F6FFF8"/>
  <circle cx="1050" cy="240" r="240" fill="#DCFCE7" fill-opacity="0.55"/>
  <circle cx="190" cy="1900" r="280" fill="#DCFCE7" fill-opacity="0.65"/>
  <rect x="52" y="52" width="1136" height="2104" rx="68" fill="#FFFFFF" stroke="#D1FAE5" stroke-width="4"/>
  
  <text x="112" y="134" fill="#111827" font-size="34" font-weight="700" font-family="Inter, Arial, sans-serif">9:41</text>
  <rect x="996" y="104" width="42" height="20" rx="10" fill="#111827" opacity="0.92"/>
  <rect x="1048" y="100" width="54" height="28" rx="8" fill="none" stroke="#111827" stroke-width="6"/>
  <rect x="1106" y="107" width="8" height="14" rx="3" fill="#111827"/>
  <path d="M936 124C955 107 979 107 998 124" stroke="#111827" stroke-width="6" stroke-linecap="round"/>
  <path d="M956 124C966 115 979 115 989 124" stroke="#111827" stroke-width="6" stroke-linecap="round"/>
  
  <g>
    <rect x="96" y="170" width="1048" height="118" rx="32" fill="#15803D"/>
    <circle cx="166" cy="229" r="30" fill="#DCFCE7"/>
    <path d="M166 198C166 198 145 223 145 242.5C145 256.5 154 268 166 268C178 268 187 256.5 187 242.5C187 223 166 198 166 198Z" fill="#15803D"/>
    <text x="214" y="222" fill="#FFFFFF" font-size="42" font-weight="700" font-family="Inter, Arial, sans-serif">Billing &amp; Payments</text>
    <text x="214" y="258" fill="#DCFCE7" font-size="22" font-weight="500" font-family="Inter, Arial, sans-serif">Invoices, collections and follow-ups</text>
  </g>
      <g><rect x="96" y="328" width="152" height="46" rx="23" fill="#DCFCE7"/><text x="172" y="358" text-anchor="middle" fill="#166534" font-size="20" font-weight="700" font-family="Inter, Arial, sans-serif">June 2026</text></g>
      <g><rect x="282" y="328" width="208" height="46" rx="23" fill="#DBEAFE"/><text x="386" y="358" text-anchor="middle" fill="#1D4ED8" font-size="20" font-weight="700" font-family="Inter, Arial, sans-serif">All customers</text></g>
      <g>
    <rect x="96" y="390" width="328" height="160" rx="28" fill="#FFFFFF" stroke="#D1FAE5" stroke-width="3"/>
    <rect x="120" y="414" width="54" height="54" rx="18" fill="#DCFCE7"/>
    <text x="196" y="440" fill="#6B7280" font-size="22" font-weight="600" font-family="Inter, Arial, sans-serif">Billed</text>
    <text x="120" y="510" fill="#111827" font-size="44" font-weight="800" font-family="Inter, Arial, sans-serif">₹82,400</text>
  </g>
      <g>
    <rect x="456" y="390" width="328" height="160" rx="28" fill="#FFFFFF" stroke="#D1FAE5" stroke-width="3"/>
    <rect x="480" y="414" width="54" height="54" rx="18" fill="#DBEAFE"/>
    <text x="556" y="440" fill="#6B7280" font-size="22" font-weight="600" font-family="Inter, Arial, sans-serif">Collected</text>
    <text x="480" y="510" fill="#111827" font-size="44" font-weight="800" font-family="Inter, Arial, sans-serif">₹61,180</text>
  </g>
      <g>
    <rect x="816" y="390" width="328" height="160" rx="28" fill="#FFFFFF" stroke="#D1FAE5" stroke-width="3"/>
    <rect x="840" y="414" width="54" height="54" rx="18" fill="#FEF3C7"/>
    <text x="916" y="440" fill="#6B7280" font-size="22" font-weight="600" font-family="Inter, Arial, sans-serif">Due</text>
    <text x="840" y="510" fill="#111827" font-size="44" font-weight="800" font-family="Inter, Arial, sans-serif">₹21,220</text>
  </g>
      <text x="96" y="610" fill="#111827" font-size="30" font-weight="800" font-family="Inter, Arial, sans-serif">Invoices needing attention</text><text x="796" y="610" fill="#15803D" font-size="22" font-weight="700" text-anchor="end" font-family="Inter, Arial, sans-serif">Send reminders</text>
      <g>
    <rect x="96" y="644" width="1048" height="146" rx="24" fill="#FFFFFF" stroke="#D1FAE5" stroke-width="3"/>
    <circle cx="144" cy="692" r="18" fill="#DCFCE7"/>
    <text x="176" y="686" fill="#111827" font-size="24" font-weight="800" font-family="Inter, Arial, sans-serif">Anil Gupta • June invoice</text>
    <rect x="120" y="726" width="136" height="38" rx="19" fill="#FEF3C7"/><text x="188" y="751" text-anchor="middle" fill="#B45309" font-size="18" font-weight="700" font-family="Inter, Arial, sans-serif">Partial payment received</text>
    <text x="1120" y="686" text-anchor="end" fill="#111827" font-size="22" font-weight="800" font-family="Inter, Arial, sans-serif">₹2,260 due</text>
    <text x="1120" y="718" text-anchor="end" fill="#6B7280" font-size="18" font-weight="600" font-family="Inter, Arial, sans-serif">UPI + Cash</text>
  </g>
      <g>
    <rect x="96" y="808" width="1048" height="146" rx="24" fill="#FFFFFF" stroke="#D1FAE5" stroke-width="3"/>
    <circle cx="144" cy="856" r="18" fill="#DCFCE7"/>
    <text x="176" y="850" fill="#111827" font-size="24" font-weight="800" font-family="Inter, Arial, sans-serif">Dairy Point • June invoice</text>
    <rect x="120" y="890" width="136" height="38" rx="19" fill="#FEE2E2"/><text x="188" y="915" text-anchor="middle" fill="#B91C1C" font-size="18" font-weight="700" font-family="Inter, Arial, sans-serif">Wholesale billing</text>
    <text x="1120" y="850" text-anchor="end" fill="#111827" font-size="22" font-weight="800" font-family="Inter, Arial, sans-serif">₹8,400 due</text>
    <text x="1120" y="882" text-anchor="end" fill="#6B7280" font-size="18" font-weight="600" font-family="Inter, Arial, sans-serif">Overdue 5 days</text>
  </g>
      <g>
    <rect x="96" y="972" width="1048" height="146" rx="24" fill="#FFFFFF" stroke="#D1FAE5" stroke-width="3"/>
    <circle cx="144" cy="1020" r="18" fill="#DCFCE7"/>
    <text x="176" y="1014" fill="#111827" font-size="24" font-weight="800" font-family="Inter, Arial, sans-serif">Royal Cafe • June invoice</text>
    <rect x="120" y="1054" width="136" height="38" rx="19" fill="#DBEAFE"/><text x="188" y="1079" text-anchor="middle" fill="#1D4ED8" font-size="18" font-weight="700" font-family="Inter, Arial, sans-serif">Commercial plan</text>
    <text x="1120" y="1014" text-anchor="end" fill="#111827" font-size="22" font-weight="800" font-family="Inter, Arial, sans-serif">₹1,250 due</text>
    <text x="1120" y="1046" text-anchor="end" fill="#6B7280" font-size="18" font-weight="600" font-family="Inter, Arial, sans-serif">Reminder sent</text>
  </g>
      <g>
        <rect x="96" y="1168" width="1048" height="308" rx="28" fill="#FFFFFF" stroke="#D1FAE5" stroke-width="3"/>
        <text x="120" y="1210" fill="#111827" font-size="28" font-weight="800" font-family="Inter, Arial, sans-serif">Collection methods</text>
        <rect x="120" y="1250" width="300" height="186" rx="24" fill="#F9FAFB" stroke="#D1FAE5" stroke-width="3"/>
        <text x="150" y="1302" fill="#6B7280" font-size="22" font-weight="700" font-family="Inter, Arial, sans-serif">UPI</text>
        <text x="150" y="1382" fill="#111827" font-size="46" font-weight="800" font-family="Inter, Arial, sans-serif">₹31,400</text>
        <rect x="444" y="1250" width="300" height="186" rx="24" fill="#F9FAFB" stroke="#D1FAE5" stroke-width="3"/>
        <text x="474" y="1302" fill="#6B7280" font-size="22" font-weight="700" font-family="Inter, Arial, sans-serif">Cash</text>
        <text x="474" y="1382" fill="#111827" font-size="46" font-weight="800" font-family="Inter, Arial, sans-serif">₹18,220</text>
        <rect x="768" y="1250" width="352" height="186" rx="24" fill="#F9FAFB" stroke="#D1FAE5" stroke-width="3"/>
        <text x="798" y="1302" fill="#6B7280" font-size="22" font-weight="700" font-family="Inter, Arial, sans-serif">Bank transfer</text>
        <text x="798" y="1382" fill="#111827" font-size="46" font-weight="800" font-family="Inter, Arial, sans-serif">₹11,560</text>
      </g>
      <g>
    <rect x="96" y="1516" width="1048" height="392" rx="28" fill="#FFFFFF" stroke="#D1FAE5" stroke-width="3"/>
    <text x="120" y="1558" fill="#111827" font-size="28" font-weight="800" font-family="Inter, Arial, sans-serif">Last 5 collection days</text>
    <g>
        <rect x="128" y="1675.3333333333333" width="40" height="174.66666666666666" rx="12" fill="#86EFAC"/>
        <text x="148" y="1882" text-anchor="middle" fill="#6B7280" font-size="16" font-weight="700" font-family="Inter, Arial, sans-serif">Mon</text>
      </g><g>
        <rect x="196" y="1640.4" width="40" height="209.60000000000002" rx="12" fill="#22C55E"/>
        <text x="216" y="1882" text-anchor="middle" fill="#6B7280" font-size="16" font-weight="700" font-family="Inter, Arial, sans-serif">Tue</text>
      </g><g>
        <rect x="264" y="1710.2666666666667" width="40" height="139.73333333333332" rx="12" fill="#16A34A"/>
        <text x="284" y="1882" text-anchor="middle" fill="#6B7280" font-size="16" font-weight="700" font-family="Inter, Arial, sans-serif">Wed</text>
      </g><g>
        <rect x="332" y="1588" width="40" height="262" rx="12" fill="#15803D"/>
        <text x="352" y="1882" text-anchor="middle" fill="#6B7280" font-size="16" font-weight="700" font-family="Inter, Arial, sans-serif">Thu</text>
      </g><g>
        <rect x="400" y="1622.9333333333334" width="40" height="227.06666666666666" rx="12" fill="#1D4ED8"/>
        <text x="420" y="1882" text-anchor="middle" fill="#6B7280" font-size="16" font-weight="700" font-family="Inter, Arial, sans-serif">Fri</text>
      </g>
  </g>
      
  <rect x="96" y="1960" width="1048" height="132" rx="34" fill="#FFFFFF" stroke="#D1FAE5" stroke-width="3"/>
  
      <circle cx="208" cy="2012" r="20" fill="#E5E7EB"/>
      <text x="208" y="2066" text-anchor="middle" fill="#6B7280" font-size="20" font-weight="600" font-family="Inter, Arial, sans-serif">Home</text>
      <circle cx="416" cy="2012" r="20" fill="#E5E7EB"/>
      <text x="416" y="2066" text-anchor="middle" fill="#6B7280" font-size="20" font-weight="600" font-family="Inter, Arial, sans-serif">Customers</text>
      <circle cx="624" cy="2012" r="20" fill="#15803D"/>
      <text x="624" y="2066" text-anchor="middle" fill="#15803D" font-size="20" font-weight="700" font-family="Inter, Arial, sans-serif">Billing</text>
      <circle cx="832" cy="2012" r="20" fill="#E5E7EB"/>
      <text x="832" y="2066" text-anchor="middle" fill="#6B7280" font-size="20" font-weight="600" font-family="Inter, Arial, sans-serif">Reports</text>
      <circle cx="1040" cy="2012" r="20" fill="#E5E7EB"/>
      <text x="1040" y="2066" text-anchor="middle" fill="#6B7280" font-size="20" font-weight="600" font-family="Inter, Arial, sans-serif">More</text>
</svg>