<svg width="1240" height="2208" viewBox="0 0 1240 2208" fill="none" xmlns="http://www.w3.org/2000/svg" aria-label="Workers and attendance">
  <rect width="1240" height="2208" fill="#F6FFF8"/>
  <circle cx="1050" cy="240" r="240" fill="#DCFCE7" fill-opacity="0.55"/>
  <circle cx="190" cy="1900" r="280" fill="#DCFCE7" fill-opacity="0.65"/>
  <rect x="52" y="52" width="1136" height="2104" rx="68" fill="#FFFFFF" stroke="#D1FAE5" stroke-width="4"/>
  
  <text x="112" y="134" fill="#111827" font-size="34" font-weight="700" font-family="Inter, Arial, sans-serif">9:41</text>
  <rect x="996" y="104" width="42" height="20" rx="10" fill="#111827" opacity="0.92"/>
  <rect x="1048" y="100" width="54" height="28" rx="8" fill="none" stroke="#111827" stroke-width="6"/>
  <rect x="1106" y="107" width="8" height="14" rx="3" fill="#111827"/>
  <path d="M936 124C955 107 979 107 998 124" stroke="#111827" stroke-width="6" stroke-linecap="round"/>
  <path d="M956 124C966 115 979 115 989 124" stroke="#111827" stroke-width="6" stroke-linecap="round"/>
  
  <g>
    <rect x="96" y="170" width="1048" height="118" rx="32" fill="#15803D"/>
    <circle cx="166" cy="229" r="30" fill="#DCFCE7"/>
    <path d="M166 198C166 198 145 223 145 242.5C145 256.5 154 268 166 268C178 268 187 256.5 187 242.5C187 223 166 198 166 198Z" fill="#15803D"/>
    <text x="214" y="222" fill="#FFFFFF" font-size="42" font-weight="700" font-family="Inter, Arial, sans-serif">Workers &amp; Attendance</text>
    <text x="214" y="258" fill="#DCFCE7" font-size="22" font-weight="500" font-family="Inter, Arial, sans-serif">Keep teams, routes and payroll in sync</text>
  </g>
      <g>
    <rect x="96" y="328" width="328" height="156" rx="28" fill="#FFFFFF" stroke="#D1FAE5" stroke-width="3"/>
    <rect x="120" y="352" width="54" height="54" rx="18" fill="#DCFCE7"/>
    <text x="196" y="378" fill="#6B7280" font-size="22" font-weight="600" font-family="Inter, Arial, sans-serif">Active staff</text>
    <text x="120" y="448" fill="#111827" font-size="44" font-weight="800" font-family="Inter, Arial, sans-serif">12</text>
  </g>
      <g>
    <rect x="456" y="328" width="328" height="156" rx="28" fill="#FFFFFF" stroke="#D1FAE5" stroke-width="3"/>
    <rect x="480" y="352" width="54" height="54" rx="18" fill="#DBEAFE"/>
    <text x="556" y="378" fill="#6B7280" font-size="22" font-weight="600" font-family="Inter, Arial, sans-serif">Present today</text>
    <text x="480" y="448" fill="#111827" font-size="44" font-weight="800" font-family="Inter, Arial, sans-serif">10</text>
  </g>
      <g>
    <rect x="816" y="328" width="328" height="156" rx="28" fill="#FFFFFF" stroke="#D1FAE5" stroke-width="3"/>
    <rect x="840" y="352" width="54" height="54" rx="18" fill="#FEF3C7"/>
    <text x="916" y="378" fill="#6B7280" font-size="22" font-weight="600" font-family="Inter, Arial, sans-serif">Salary due</text>
    <text x="840" y="448" fill="#111827" font-size="44" font-weight="800" font-family="Inter, Arial, sans-serif">₹58,500</text>
  </g>
      <text x="96" y="540" fill="#111827" font-size="30" font-weight="800" font-family="Inter, Arial, sans-serif">Today's roster</text><text x="796" y="540" fill="#15803D" font-size="22" font-weight="700" text-anchor="end" font-family="Inter, Arial, sans-serif">Add worker</text>
      <g>
    <rect x="96" y="574" width="1048" height="142" rx="24" fill="#FFFFFF" stroke="#D1FAE5" stroke-width="3"/>
    <circle cx="144" cy="622" r="18" fill="#DCFCE7"/>
    <text x="176" y="616" fill="#111827" font-size="24" font-weight="800" font-family="Inter, Arial, sans-serif">Amit Singh</text>
    <rect x="120" y="656" width="136" height="38" rx="19" fill="#DCFCE7"/><text x="188" y="681" text-anchor="middle" fill="#166534" font-size="18" font-weight="700" font-family="Inter, Arial, sans-serif">Delivery boy • Sector 15</text>
    <text x="1120" y="616" text-anchor="end" fill="#111827" font-size="22" font-weight="800" font-family="Inter, Arial, sans-serif">Present</text>
    <text x="1120" y="648" text-anchor="end" fill="#6B7280" font-size="18" font-weight="600" font-family="Inter, Arial, sans-serif">₹12,000 / month</text>
  </g>
      <g>
    <rect x="96" y="734" width="1048" height="142" rx="24" fill="#FFFFFF" stroke="#D1FAE5" stroke-width="3"/>
    <circle cx="144" cy="782" r="18" fill="#DCFCE7"/>
    <text x="176" y="776" fill="#111827" font-size="24" font-weight="800" font-family="Inter, Arial, sans-serif">Ravi Kumar</text>
    <rect x="120" y="816" width="136" height="38" rx="19" fill="#DCFCE7"/><text x="188" y="841" text-anchor="middle" fill="#166534" font-size="18" font-weight="700" font-family="Inter, Arial, sans-serif">Delivery boy • Sector 16</text>
    <text x="1120" y="776" text-anchor="end" fill="#111827" font-size="22" font-weight="800" font-family="Inter, Arial, sans-serif">Present</text>
    <text x="1120" y="808" text-anchor="end" fill="#6B7280" font-size="18" font-weight="600" font-family="Inter, Arial, sans-serif">₹11,500 / month</text>
  </g>
      <g>
    <rect x="96" y="894" width="1048" height="142" rx="24" fill="#FFFFFF" stroke="#D1FAE5" stroke-width="3"/>
    <circle cx="144" cy="942" r="18" fill="#DCFCE7"/>
    <text x="176" y="936" fill="#111827" font-size="24" font-weight="800" font-family="Inter, Arial, sans-serif">Geeta Devi</text>
    <rect x="120" y="976" width="136" height="38" rx="19" fill="#FEF3C7"/><text x="188" y="1001" text-anchor="middle" fill="#B45309" font-size="18" font-weight="700" font-family="Inter, Arial, sans-serif">Cleaner</text>
    <text x="1120" y="936" text-anchor="end" fill="#111827" font-size="22" font-weight="800" font-family="Inter, Arial, sans-serif">Half day</text>
    <text x="1120" y="968" text-anchor="end" fill="#6B7280" font-size="18" font-weight="600" font-family="Inter, Arial, sans-serif">₹6,000 / month</text>
  </g>
      <g>
    <rect x="96" y="1054" width="1048" height="142" rx="24" fill="#FFFFFF" stroke="#D1FAE5" stroke-width="3"/>
    <circle cx="144" cy="1102" r="18" fill="#DCFCE7"/>
    <text x="176" y="1096" fill="#111827" font-size="24" font-weight="800" font-family="Inter, Arial, sans-serif">Vijay Sharma</text>
    <rect x="120" y="1136" width="136" height="38" rx="19" fill="#DBEAFE"/><text x="188" y="1161" text-anchor="middle" fill="#1D4ED8" font-size="18" font-weight="700" font-family="Inter, Arial, sans-serif">Manager</text>
    <text x="1120" y="1096" text-anchor="end" fill="#111827" font-size="22" font-weight="800" font-family="Inter, Arial, sans-serif">Present</text>
    <text x="1120" y="1128" text-anchor="end" fill="#6B7280" font-size="18" font-weight="600" font-family="Inter, Arial, sans-serif">₹20,000 / month</text>
  </g>
      <g>
        <rect x="96" y="1248" width="1048" height="660" rx="28" fill="#FFFFFF" stroke="#D1FAE5" stroke-width="3"/>
        <text x="120" y="1290" fill="#111827" font-size="28" font-weight="800" font-family="Inter, Arial, sans-serif">Payroll overview</text>
        <g>
    <rect x="120" y="1320" width="1000" height="300" rx="28" fill="#FFFFFF" stroke="#D1FAE5" stroke-width="3"/>
    <text x="144" y="1362" fill="#111827" font-size="28" font-weight="800" font-family="Inter, Arial, sans-serif"></text>
    <g>
        <rect x="152" y="1444.3076923076924" width="40" height="117.6923076923077" rx="12" fill="#86EFAC"/>
        <text x="172" y="1594" text-anchor="middle" fill="#6B7280" font-size="16" font-weight="700" font-family="Inter, Arial, sans-serif">Mgmt</text>
      </g><g>
        <rect x="220" y="1392" width="40" height="170" rx="12" fill="#16A34A"/>
        <text x="240" y="1594" text-anchor="middle" fill="#6B7280" font-size="16" font-weight="700" font-family="Inter, Arial, sans-serif">Route</text>
      </g><g>
        <rect x="288" y="1470.4615384615386" width="40" height="91.53846153846153" rx="12" fill="#22C55E"/>
        <text x="308" y="1594" text-anchor="middle" fill="#6B7280" font-size="16" font-weight="700" font-family="Inter, Arial, sans-serif">Care</text>
      </g><g>
        <rect x="356" y="1418.1538461538462" width="40" height="143.84615384615384" rx="12" fill="#1D4ED8"/>
        <text x="376" y="1594" text-anchor="middle" fill="#6B7280" font-size="16" font-weight="700" font-family="Inter, Arial, sans-serif">Ops</text>
      </g><g>
        <rect x="424" y="1503.1538461538462" width="40" height="58.84615384615385" rx="12" fill="#B45309"/>
        <text x="444" y="1594" text-anchor="middle" fill="#6B7280" font-size="16" font-weight="700" font-family="Inter, Arial, sans-serif">Bonus</text>
      </g>
  </g>
        <rect x="120" y="1650" width="1000" height="220" rx="24" fill="#F9FAFB" stroke="#D1FAE5" stroke-width="3"/>
        <text x="148" y="1702" fill="#6B7280" font-size="22" font-weight="700" font-family="Inter, Arial, sans-serif">Attendance insight</text>
        <text x="148" y="1778" fill="#111827" font-size="34" font-weight="800" font-family="Inter, Arial, sans-serif">92% on-time attendance this week</text>
        <text x="148" y="1822" fill="#6B7280" font-size="20" font-weight="600" font-family="Inter, Arial, sans-serif">Only one missed route handoff and one half-day shift</text>
      </g>
      
  <rect x="96" y="1960" width="1048" height="132" rx="34" fill="#FFFFFF" stroke="#D1FAE5" stroke-width="3"/>
  
      <circle cx="208" cy="2012" r="20" fill="#E5E7EB"/>
      <text x="208" y="2066" text-anchor="middle" fill="#6B7280" font-size="20" font-weight="600" font-family="Inter, Arial, sans-serif">Home</text>
      <circle cx="416" cy="2012" r="20" fill="#E5E7EB"/>
      <text x="416" y="2066" text-anchor="middle" fill="#6B7280" font-size="20" font-weight="600" font-family="Inter, Arial, sans-serif">Customers</text>
      <circle cx="624" cy="2012" r="20" fill="#E5E7EB"/>
      <text x="624" y="2066" text-anchor="middle" fill="#6B7280" font-size="20" font-weight="600" font-family="Inter, Arial, sans-serif">Billing</text>
      <circle cx="832" cy="2012" r="20" fill="#E5E7EB"/>
      <text x="832" y="2066" text-anchor="middle" fill="#6B7280" font-size="20" font-weight="600" font-family="Inter, Arial, sans-serif">Reports</text>
      <circle cx="1040" cy="2012" r="20" fill="#15803D"/>
      <text x="1040" y="2066" text-anchor="middle" fill="#15803D" font-size="20" font-weight="700" font-family="Inter, Arial, sans-serif">More</text>
</svg>