<svg width="1240" height="2208" viewBox="0 0 1240 2208" fill="none" xmlns="http://www.w3.org/2000/svg" aria-label="Reports and profit">
  <rect width="1240" height="2208" fill="#F6FFF8"/>
  <circle cx="1050" cy="240" r="240" fill="#DCFCE7" fill-opacity="0.55"/>
  <circle cx="190" cy="1900" r="280" fill="#DCFCE7" fill-opacity="0.65"/>
  <rect x="52" y="52" width="1136" height="2104" rx="68" fill="#FFFFFF" stroke="#D1FAE5" stroke-width="4"/>
  
  <text x="112" y="134" fill="#111827" font-size="34" font-weight="700" font-family="Inter, Arial, sans-serif">9:41</text>
  <rect x="996" y="104" width="42" height="20" rx="10" fill="#111827" opacity="0.92"/>
  <rect x="1048" y="100" width="54" height="28" rx="8" fill="none" stroke="#111827" stroke-width="6"/>
  <rect x="1106" y="107" width="8" height="14" rx="3" fill="#111827"/>
  <path d="M936 124C955 107 979 107 998 124" stroke="#111827" stroke-width="6" stroke-linecap="round"/>
  <path d="M956 124C966 115 979 115 989 124" stroke="#111827" stroke-width="6" stroke-linecap="round"/>
  
  <g>
    <rect x="96" y="170" width="1048" height="118" rx="32" fill="#15803D"/>
    <circle cx="166" cy="229" r="30" fill="#DCFCE7"/>
    <path d="M166 198C166 198 145 223 145 242.5C145 256.5 154 268 166 268C178 268 187 256.5 187 242.5C187 223 166 198 166 198Z" fill="#15803D"/>
    <text x="214" y="222" fill="#FFFFFF" font-size="42" font-weight="700" font-family="Inter, Arial, sans-serif">Reports</text>
    <text x="214" y="258" fill="#DCFCE7" font-size="22" font-weight="500" font-family="Inter, Arial, sans-serif">Understand revenue, expenses and profit clearly</text>
  </g>
      <g><rect x="96" y="328" width="166" height="46" rx="23" fill="#DCFCE7"/><text x="179" y="358" text-anchor="middle" fill="#166534" font-size="20" font-weight="700" font-family="Inter, Arial, sans-serif">This month</text></g>
      <g><rect x="270" y="328" width="264" height="46" rx="23" fill="#DBEAFE"/><text x="402" y="358" text-anchor="middle" fill="#1D4ED8" font-size="20" font-weight="700" font-family="Inter, Arial, sans-serif">Premium analytics</text></g>
      <g>
    <rect x="96" y="390" width="328" height="156" rx="28" fill="#FFFFFF" stroke="#D1FAE5" stroke-width="3"/>
    <rect x="120" y="414" width="54" height="54" rx="18" fill="#DCFCE7"/>
    <text x="196" y="440" fill="#6B7280" font-size="22" font-weight="600" font-family="Inter, Arial, sans-serif">Revenue</text>
    <text x="120" y="510" fill="#111827" font-size="44" font-weight="800" font-family="Inter, Arial, sans-serif">₹3.24L</text>
  </g>
      <g>
    <rect x="456" y="390" width="328" height="156" rx="28" fill="#FFFFFF" stroke="#D1FAE5" stroke-width="3"/>
    <rect x="480" y="414" width="54" height="54" rx="18" fill="#FEF3C7"/>
    <text x="556" y="440" fill="#6B7280" font-size="22" font-weight="600" font-family="Inter, Arial, sans-serif">Expenses</text>
    <text x="480" y="510" fill="#111827" font-size="44" font-weight="800" font-family="Inter, Arial, sans-serif">₹1.96L</text>
  </g>
      <g>
    <rect x="816" y="390" width="328" height="156" rx="28" fill="#FFFFFF" stroke="#D1FAE5" stroke-width="3"/>
    <rect x="840" y="414" width="54" height="54" rx="18" fill="#DBEAFE"/>
    <text x="916" y="440" fill="#6B7280" font-size="22" font-weight="600" font-family="Inter, Arial, sans-serif">Profit</text>
    <text x="840" y="510" fill="#111827" font-size="44" font-weight="800" font-family="Inter, Arial, sans-serif">₹1.28L</text>
  </g>
      <g>
    <rect x="96" y="606" width="1048" height="392" rx="28" fill="#FFFFFF" stroke="#D1FAE5" stroke-width="3"/>
    <text x="120" y="648" fill="#111827" font-size="28" font-weight="800" font-family="Inter, Arial, sans-serif">Monthly performance</text>
    <path d="M136 908 C 246 838, 306 938, 416 868 S 596 686, 716 888 S 876 948, 1104 726" stroke="#16A34A" stroke-width="10" stroke-linecap="round" fill="none"/>
    <path d="M136 938 C 256 898, 356 958, 436 918 S 656 746, 796 928 S 906 636, 1096 696" stroke="#1D4ED8" stroke-width="8" stroke-linecap="round" fill="none" opacity="0.7"/>
    <circle cx="716" cy="888" r="10" fill="#16A34A"/>
    <circle cx="796" cy="928" r="10" fill="#1D4ED8"/>
    <text x="120" y="974" fill="#6B7280" font-size="18" font-weight="600" font-family="Inter, Arial, sans-serif">Revenue</text>
    <text x="226" y="974" fill="#6B7280" font-size="18" font-weight="600" font-family="Inter, Arial, sans-serif">Expenses</text>
  </g>
      <text x="96" y="1054" fill="#111827" font-size="30" font-weight="800" font-family="Inter, Arial, sans-serif">Route-wise profitability</text>
      <g>
        <rect x="96" y="1088" width="1048" height="382" rx="28" fill="#FFFFFF" stroke="#D1FAE5" stroke-width="3"/>
        <rect x="132" y="1140" width="976" height="84" rx="24" fill="#F9FAFB"/>
        <text x="168" y="1192" fill="#111827" font-size="24" font-weight="800" font-family="Inter, Arial, sans-serif">Sector 21 wholesale</text>
        <text x="1080" y="1192" text-anchor="end" fill="#15803D" font-size="24" font-weight="800" font-family="Inter, Arial, sans-serif">₹38,400</text>
        <rect x="132" y="1248" width="976" height="84" rx="24" fill="#F9FAFB"/>
        <text x="168" y="1300" fill="#111827" font-size="24" font-weight="800" font-family="Inter, Arial, sans-serif">Sector 15 households</text>
        <text x="1080" y="1300" text-anchor="end" fill="#15803D" font-size="24" font-weight="800" font-family="Inter, Arial, sans-serif">₹29,200</text>
        <rect x="132" y="1356" width="976" height="84" rx="24" fill="#F9FAFB"/>
        <text x="168" y="1408" fill="#111827" font-size="24" font-weight="800" font-family="Inter, Arial, sans-serif">Sector 16 cafes</text>
        <text x="1080" y="1408" text-anchor="end" fill="#B45309" font-size="24" font-weight="800" font-family="Inter, Arial, sans-serif">₹14,650</text>
      </g>
      <g>
    <rect x="96" y="1510" width="1048" height="398" rx="28" fill="#FFFFFF" stroke="#D1FAE5" stroke-width="3"/>
    <text x="120" y="1552" fill="#111827" font-size="28" font-weight="800" font-family="Inter, Arial, sans-serif">Expense categories</text>
    <g>
        <rect x="128" y="1626.6666666666667" width="40" height="223.33333333333334" rx="12" fill="#86EFAC"/>
        <text x="148" y="1882" text-anchor="middle" fill="#6B7280" font-size="16" font-weight="700" font-family="Inter, Arial, sans-serif">Feed</text>
      </g><g>
        <rect x="196" y="1686.2222222222222" width="40" height="163.7777777777778" rx="12" fill="#22C55E"/>
        <text x="216" y="1882" text-anchor="middle" fill="#6B7280" font-size="16" font-weight="700" font-family="Inter, Arial, sans-serif">Fuel</text>
      </g><g>
        <rect x="264" y="1582" width="40" height="268" rx="12" fill="#15803D"/>
        <text x="284" y="1882" text-anchor="middle" fill="#6B7280" font-size="16" font-weight="700" font-family="Inter, Arial, sans-serif">Salary</text>
      </g><g>
        <rect x="332" y="1745.7777777777778" width="40" height="104.22222222222223" rx="12" fill="#1D4ED8"/>
        <text x="352" y="1882" text-anchor="middle" fill="#6B7280" font-size="16" font-weight="700" font-family="Inter, Arial, sans-serif">Maint.</text>
      </g><g>
        <rect x="400" y="1775.5555555555557" width="40" height="74.44444444444444" rx="12" fill="#B45309"/>
        <text x="420" y="1882" text-anchor="middle" fill="#6B7280" font-size="16" font-weight="700" font-family="Inter, Arial, sans-serif">Other</text>
      </g>
  </g>
      
  <rect x="96" y="1960" width="1048" height="132" rx="34" fill="#FFFFFF" stroke="#D1FAE5" stroke-width="3"/>
  
      <circle cx="208" cy="2012" r="20" fill="#E5E7EB"/>
      <text x="208" y="2066" text-anchor="middle" fill="#6B7280" font-size="20" font-weight="600" font-family="Inter, Arial, sans-serif">Home</text>
      <circle cx="416" cy="2012" r="20" fill="#E5E7EB"/>
      <text x="416" y="2066" text-anchor="middle" fill="#6B7280" font-size="20" font-weight="600" font-family="Inter, Arial, sans-serif">Customers</text>
      <circle cx="624" cy="2012" r="20" fill="#E5E7EB"/>
      <text x="624" y="2066" text-anchor="middle" fill="#6B7280" font-size="20" font-weight="600" font-family="Inter, Arial, sans-serif">Billing</text>
      <circle cx="832" cy="2012" r="20" fill="#15803D"/>
      <text x="832" y="2066" text-anchor="middle" fill="#15803D" font-size="20" font-weight="700" font-family="Inter, Arial, sans-serif">Reports</text>
      <circle cx="1040" cy="2012" r="20" fill="#E5E7EB"/>
      <text x="1040" y="2066" text-anchor="middle" fill="#6B7280" font-size="20" font-weight="600" font-family="Inter, Arial, sans-serif">More</text>
</svg>